# xmcd
#
# Track frame offsets: 
#        150
#        3497
#        27140
#        48658
#        81574
#        105131
#        121703
#        133558
#        161866
#        189091
#        208640
#        235221
#        271958
#        290387
#        306737
#
# Disc length: 4314 seconds
#
# Revision: 0
# Processed by: cddbd v1.5.2PL0 Copyright (c) Steve Scherf et al.
# Submitted via: ExactAudioCopy v1.2
#
DISCID=cb10d80f
DTITLE=Hans Theessink - 65th Birthday Bash
DYEAR=2013
DGENRE=Blues
TTITLE0=Welcome
TTITLE1=Tears Are Rolling
TTITLE2=He's on the Road Again
TTITLE3=New Home Upon the Hill
TTITLE4=Call Me
TTITLE5=Der Zug
TTITLE6=Brief von Lukas
TTITLE7=Deportees
TTITLE8=Honest I Do
TTITLE9=Love You Baby
TTITLE10=Leaving at Daybreak
TTITLE11=No Expectations
TTITLE12=Gö, Du Bleibtst Heut Nacht Bei Mir
TTITLE13=May the Road
TTITLE14=Ring of Fire
EXTD=
EXTT0=
EXTT1=
EXTT2=
EXTT3=
EXTT4=
EXTT5=
EXTT6=
EXTT7=
EXTT8=
EXTT9=
EXTT10=
EXTT11=
EXTT12=
EXTT13=
EXTT14=
PLAYORDER=
